<svg width="1080" height="250" viewBox="0 0 1080 250" fill="none" xmlns="http://www.w3.org/2000/svg">
<path d="M335.341 204.353C338.819 202.082 342.877 200.947 347.515 200.947C351.331 200.947 354.785 201.744 357.876 203.338C360.968 204.884 363.528 207.034 365.557 209.787C367.586 212.541 369.011 215.657 369.832 219.135L369.977 219.932H361.789L361.644 219.425C360.726 216.188 358.987 213.531 356.427 211.454C353.915 209.328 350.944 208.266 347.515 208.266C344.471 208.266 341.839 209.063 339.616 210.657C337.394 212.251 335.704 214.352 334.544 216.961C333.385 219.521 332.805 222.25 332.805 225.149C332.805 227.999 333.385 230.728 334.544 233.337C335.704 235.897 337.394 237.974 339.616 239.568C341.839 241.163 344.471 241.96 347.515 241.96C350.944 241.96 353.939 240.921 356.5 238.844C359.06 236.767 360.775 234.11 361.644 230.873L361.789 230.366H369.977L369.832 231.163C369.011 234.689 367.586 237.829 365.557 240.583C363.528 243.336 360.968 245.51 357.876 247.104C354.833 248.65 351.379 249.423 347.515 249.423C342.877 249.423 338.819 248.312 335.341 246.09C331.912 243.819 329.279 240.849 327.443 237.177C325.656 233.458 324.762 229.472 324.762 225.221C324.762 220.97 325.656 216.985 327.443 213.265C329.279 209.546 331.912 206.575 335.341 204.353ZM401.417 248.481H393.446L413.735 201.527H421.126L442.139 248.481H434.024L428.662 236.38H406.634L401.417 248.481ZM417.503 210.15L409.242 229.569H426.198L417.503 210.15ZM477.941 248.481H470.405V201.889H502.36C505.065 201.889 507.36 202.493 509.244 203.701C511.176 204.908 512.625 206.527 513.591 208.556C514.606 210.584 515.113 212.831 515.113 215.294C515.113 219.111 514.002 222.299 511.78 224.859C509.558 227.371 506.418 228.627 502.36 228.627H477.941V248.481ZM477.941 208.773V221.671H502.36C504.148 221.671 505.452 221.091 506.273 219.932C507.143 218.772 507.577 217.251 507.577 215.367C507.577 213.531 507.118 211.985 506.201 210.729C505.331 209.425 504.051 208.773 502.36 208.773H477.941ZM544.651 248.481V201.889H552.187V248.481H544.651ZM599.435 248.481V208.773H581.248V201.889H625.086V208.773H606.971V248.481H599.435ZM652.335 248.481H644.364L664.653 201.527H672.044L693.057 248.481H684.942L679.579 236.38H657.552L652.335 248.481ZM668.348 210.005L660.16 229.569H677.116L668.348 210.005ZM721.323 248.481V201.889H728.859V241.597H756.104V248.481H721.323Z" fill="#1A2B3A"/>
<path d="M166.463 3.97747V55.4723H166.045L134.227 7.32672C132.831 5.09389 130.529 3.97747 127.319 3.97747H124.388C103.176 3.97747 92.5704 27.9805 92.5704 75.9865C92.5704 123.574 103.316 147.368 124.807 147.368H127.11C130.319 147.368 132.622 146.391 134.017 144.437L166.045 95.0354H166.463V147.577C152.787 150.089 137.925 151.345 121.876 151.345C97.5943 151.345 79.4525 144.716 67.451 131.459C55.4495 118.062 49.4487 99.5708 49.4487 75.9865C49.4487 52.5417 55.6588 34.051 68.079 20.5144C80.4991 6.83828 98.1525 0.000216474 121.039 0.000216474C136.669 0.000216474 151.81 1.32597 166.463 3.97747ZM194.474 97.966L189.032 114.712C188.473 116.387 188.264 117.573 188.404 118.271C188.683 118.969 189.45 120.225 190.706 122.039L209.336 148.833V149.251H159.726V148.833L179.821 122.039C182.054 119.108 183.659 116.178 184.636 113.247L213.732 24.073C214.43 22.1193 214.709 20.7935 214.57 20.0958C214.43 19.2584 213.732 18.142 212.476 16.7465L200.126 2.51216V2.09351L249.318 2.09351L288.463 126.225C289.16 128.598 290.556 131.459 292.649 134.808L301.441 148.833V149.251H239.48V148.833L249.528 134.808C250.504 133.412 250.644 131.528 249.946 129.156L240.108 97.966H194.474ZM217.71 25.957L195.73 93.7794H238.852L217.71 25.957ZM402.39 103.618C402.39 117.852 397.017 129.365 386.271 138.157C375.526 146.949 361.361 151.345 343.778 151.345C328.567 151.345 314.262 149.391 300.865 145.484V95.454H301.284L328.915 143.181C330.171 145.414 331.706 146.67 333.521 146.949C335.614 147.228 338.545 147.368 342.312 147.368C350.965 147.368 357.873 145.274 363.036 141.088C368.199 136.901 370.781 130.97 370.781 123.295C370.781 116.736 368.618 111.503 364.292 107.595C359.966 103.548 352.5 99.0126 341.894 93.9887L335.405 90.8488C329.822 88.1973 325.078 85.6854 321.17 83.313C317.263 80.801 313.216 77.7309 309.029 74.1025C304.982 70.3346 301.842 65.9387 299.609 60.9148C297.516 55.7514 296.469 50.0297 296.469 43.7499C296.469 30.4924 301.424 19.8864 311.332 11.932C321.24 3.97746 334.428 0.000216474 350.895 0.000216474C364.431 0.000216474 377.828 1.60507 391.086 4.81477V52.5417H390.667L362.408 7.32672C361.292 5.65209 359.896 4.67522 358.221 4.39612C356.686 4.11702 354.663 3.97747 352.151 3.97747C344.615 3.97747 338.545 6.00098 333.939 10.048C329.474 14.095 327.241 19.7469 327.241 27.0036C327.241 33.1439 329.264 38.098 333.311 41.8659C337.498 45.6338 344.336 49.8204 353.825 54.4256L361.571 58.1936C367.013 60.845 371.339 63.0779 374.549 64.8921C377.759 66.5667 381.317 68.8693 385.225 71.7999C389.272 74.591 392.342 77.382 394.435 80.173C396.668 82.9641 398.552 86.3831 400.087 90.4301C401.622 94.4772 402.39 98.8731 402.39 103.618ZM508.429 2.09351V52.751H508.011L481.007 9.62933C479.612 7.3965 477.658 6.28008 475.146 6.28008H453.585C452.05 6.28008 451.073 6.55918 450.655 7.11739C450.236 7.53605 450.027 8.65246 450.027 10.4666V73.4745H464.261C466.354 73.335 468.168 72.3581 469.704 70.5439L488.543 48.7738H488.962V102.153H488.543L469.704 80.3824C468.029 78.5682 466.145 77.6611 464.052 77.6611H450.027V140.878C450.027 142.693 450.236 143.879 450.655 144.437C451.073 144.856 452.05 145.065 453.585 145.065H477.658C480.728 145.065 482.821 144.088 483.938 142.134L509.895 97.7566H510.313V149.251H396.229V148.833L410.254 135.645C411.51 134.389 412.138 132.715 412.138 130.621V20.7237C412.138 18.6305 411.51 16.9558 410.254 15.6999L396.229 2.51216V2.09351L508.429 2.09351Z" fill="#1A2B3A"/>
<path d="M637.673 2.09351L628.254 47.3085H627.835L618.206 9.62933C617.648 7.11739 615.833 5.86141 612.763 5.86141L575.712 5.86141C574.317 5.86141 573.34 6.2103 572.782 6.90807C572.223 7.46627 571.735 8.65246 571.316 10.4666L558.338 72.2186H584.085C586.179 72.079 588.411 70.7533 590.784 68.2413L607.949 49.6111H608.367L598.11 98.594H597.692L588.272 79.7544C587.016 77.2424 585.271 75.9865 583.039 75.9865H557.501L545.359 133.342C544.941 135.436 545.569 136.831 547.243 137.529L569.014 148.833L568.804 149.251H500.982V148.833L521.077 138.994C523.171 138.018 524.427 136.622 524.845 134.808L549.755 16.5372C550.034 14.8625 549.406 13.467 547.871 12.3506L531.962 2.51216V2.09351L637.673 2.09351ZM673.817 16.5372L647.651 140.669C647.232 142.623 647.162 143.948 647.441 144.646C647.721 145.204 648.558 145.484 649.953 145.484H683.027C686.795 145.484 689.307 144.576 690.563 142.762L718.822 102.362H719.241L709.403 149.251L604.738 149.251V148.833L624.834 138.994C627.067 137.878 628.323 136.482 628.602 134.808L653.512 16.5372C653.791 14.723 653.163 13.3275 651.628 12.3506L635.719 2.51216V2.09351L697.471 2.09351V2.51216L677.375 12.3506C675.282 13.3275 674.096 14.723 673.817 16.5372ZM798.745 0.000216474C815.352 0.000216474 828.54 5.44276 838.308 16.3278C848.077 27.0734 852.961 41.0984 852.961 58.4029C852.961 75.0096 849.542 90.4999 842.704 104.874C835.866 119.108 826.586 130.412 814.863 138.785C803.141 147.158 790.442 151.345 776.766 151.345C760.159 151.345 746.971 145.972 737.203 135.226C727.434 124.341 722.55 110.247 722.55 92.9421C722.55 76.3354 725.969 60.9148 732.807 46.6805C739.645 32.3066 748.925 20.9331 760.647 12.5599C772.37 4.18679 785.069 0.000216474 798.745 0.000216474ZM775.719 148.205C785.767 148.205 795.117 143.111 803.769 132.924C812.421 122.737 819.12 110.107 823.865 95.0354C828.609 79.8242 830.982 64.4734 830.982 48.9831C830.982 18.4211 820.585 3.14015 799.792 3.14015C789.744 3.14015 780.394 8.23382 771.742 18.4211C763.089 28.6085 756.391 41.3077 751.646 56.5189C746.901 71.5906 744.529 86.8716 744.529 102.362C744.529 132.924 754.926 148.205 775.719 148.205ZM1033.34 24.2823L966.772 149.251H955.05L943.537 49.6111L890.158 149.251H878.435L861.899 19.2584C861.48 16.0487 860.433 13.3972 858.759 11.304L851.641 2.51216V2.09351L901.462 2.09351V2.51216L884.297 13.8159C882.622 14.7928 881.994 16.4674 882.413 18.8398L896.438 129.784L942.909 43.1219L940.187 19.2584C939.908 16.6069 938.862 13.9555 937.047 11.304L931.186 2.51216V2.09351L979.75 2.09351V2.51216L962.376 13.8159C960.841 14.7928 960.143 16.3278 960.283 18.4211L973.052 129.575L1028.94 24.701C1029.78 22.8868 1030.06 21.4913 1029.78 20.5144C1029.64 19.5376 1028.94 18.4211 1027.69 17.1652L1012.62 2.51216V2.09351L1059.71 2.09351V2.51216L1040.87 16.1185C1037.39 18.77 1034.87 21.4913 1033.34 24.2823Z" fill="#009352"/>
</svg>
